<mxfile host="app.diagrams.net" modified="2023-04-26T06:33:12.068Z" agent="Mozilla/5.0 (Macintosh; Intel Mac OS X 10_15_7) AppleWebKit/537.36 (KHTML, like Gecko) Chrome/114.0.0.0 Safari/537.36" etag="BROCS6PsTKk2t16uiyFs" version="21.1.4" type="github">
  <diagram name="第 1 页" id="78qTR4Lbd2t5by9yKB7Y">
    <mxGraphModel dx="1505" dy="844" grid="0" gridSize="10" guides="1" tooltips="1" connect="1" arrows="1" fold="1" page="0" pageScale="1" pageWidth="3300" pageHeight="4681" math="0" shadow="0">
      <root>
        <mxCell id="0" />
        <mxCell id="1" parent="0" />
        <mxCell id="cU2cpRMqaWGYMPGUyTs9-1" value="冒泡页" style="rounded=0;whiteSpace=wrap;html=1;" vertex="1" parent="1">
          <mxGeometry x="308" y="308" width="120" height="60" as="geometry" />
        </mxCell>
        <mxCell id="cU2cpRMqaWGYMPGUyTs9-2" value="议价导流" style="rounded=0;whiteSpace=wrap;html=1;" vertex="1" parent="1">
          <mxGeometry x="531" y="228" width="120" height="60" as="geometry" />
        </mxCell>
        <mxCell id="cU2cpRMqaWGYMPGUyTs9-3" value="弹窗" style="rounded=0;whiteSpace=wrap;html=1;" vertex="1" parent="1">
          <mxGeometry x="770" y="224" width="120" height="60" as="geometry" />
        </mxCell>
      </root>
    </mxGraphModel>
  </diagram>
</mxfile>
